<svg xmlns="http://www.w3.org/2000/svg" width="16" height="16" viewBox="0 0 16 16">
    <g fill="none" fill-rule="evenodd">
        <!-- letter background -->
        <polygon fill="#F26522" fill-opacity=".7" points="1 16 16 16 16 9 1 9"/>
        <!-- clipped corner -->
        <polygon fill="#9AA7B0" fill-opacity=".8" points="7 1 3 5 7 5"/>
        <!-- paper -->
        <polygon fill="#9AA7B0" fill-opacity=".8" points="8 1 8 6 3 6 3 8 13 8 13 1"/>
        <!--J-->
        <path fill="#231F20" fill-opacity=".7" d="M1.39509277,3.58770752 C1.62440186,3.83789062 1.83782861,4 2.28682861,4 C2.81318359,4 3,3.58770752 3,3.29760742 L3,0 L4,0 L4,3.58770752 C4,4.31964111 3.32670898,5 2.45,5 C1.629,5 1.15,4.76264111 0.8,4.31964111 L1.39509277,3.58770752 Z" transform="translate(1 10)"/>
        <!--L-->
        <polygon fill="#231F20" fill-opacity=".7" points="0 0 1 0 1 4 3.5 4 3.5 5 0 5" transform="translate(6 10)"/>
        <!--Y-->
        <polygon fill="#231F20" fill-opacity=".7" points="1.996 5 1.996 3.029 0 0 1.05 0 2.496 2.207 3.95 0 5 0 3 3.007 3 5" transform="translate(9 10)"/>
    </g>
</svg>
